<svg width="18" height="10" viewBox="0 0 18 10" fill="none" xmlns="http://www.w3.org/2000/svg">
<path fill-rule="evenodd" clip-rule="evenodd" d="M0.927442 0.601446C1.10206 0.42943 1.33733 0.333008 1.58244 0.333008C1.82755 0.333008 2.06283 0.42943 2.23744 0.601446L8.98994 7.28645L15.7424 0.601446C15.9171 0.42943 16.1523 0.333008 16.3974 0.333008C16.6426 0.333008 16.8778 0.42943 17.0524 0.601446C17.4133 0.959779 17.4133 1.53978 17.0524 1.89811L9.64411 9.23144C9.46957 9.40296 9.23465 9.49906 8.98994 9.49906C8.74523 9.49906 8.51032 9.40296 8.33577 9.23144L0.927442 1.89811C0.841473 1.81344 0.773203 1.71251 0.726603 1.60121C0.680004 1.48991 0.656006 1.37044 0.656006 1.24978C0.656006 1.12911 0.680004 1.00965 0.726603 0.898348C0.773203 0.787044 0.841473 0.686119 0.927442 0.601446Z" fill="#0D4949" fill-opacity="0.4"/>
</svg>
