<svg width="24" height="17" viewBox="0 0 24 17" fill="none" xmlns="http://www.w3.org/2000/svg">
<g clip-path="url(#clip0_251_1485)">
<path opacity="0.2" d="M15.9282 1.56641H1.46939C0.793469 1.56641 0 2.34518 0 3.03579V14.0562C0 14.7468 0.793469 15.5256 1.46939 15.5256H19.8367C20.5127 15.5256 21.3061 14.7468 21.3061 14.0562V8.52396C20.6872 9.08071 19.9228 9.45015 19.102 9.58926V9.64804C19.102 10.1329 18.8376 10.3827 18.3673 10.3827H2.20408C1.73388 10.3827 1.46939 10.1329 1.46939 9.64804V8.91335C1.46939 8.42845 1.73388 8.17865 2.20408 8.17865H15.0833C14.6592 7.70865 14.3416 7.15255 14.1524 6.54843C13.9632 5.94431 13.9068 5.30643 13.9871 4.67848C14.0673 4.05052 14.2823 3.44733 14.6173 2.91019C14.9523 2.37305 15.3995 1.91466 15.9282 1.56641V1.56641Z" fill="#697386"/>
<path d="M14.209 3.76953H0V5.97361H14.018C13.8945 5.23457 13.9602 4.47632 14.209 3.76953Z" fill="#697386"/>
</g>
<path d="M18.8123 10.2857C17.4516 10.2857 16.1466 9.74388 15.1844 8.77941C14.2222 7.81493 13.6816 6.50683 13.6816 5.14286C13.6816 3.77889 14.2222 2.47078 15.1844 1.50631C16.1466 0.541835 17.4516 0 18.8123 0C20.173 0 21.4781 0.541835 22.4402 1.50631C23.4024 2.47078 23.943 3.77889 23.943 5.14286C23.943 6.50683 23.4024 7.81493 22.4402 8.77941C21.4781 9.74388 20.173 10.2857 18.8123 10.2857ZM16.7747 3.01224H16.1957L14.7811 3.73224V4.46694L15.9025 3.87918V7.27347H16.782V3.01224H16.7747ZM18.4605 3.6C18.8783 3.6 19.1715 3.8351 19.1715 4.17306C19.1715 4.54041 18.827 4.79755 18.3286 4.79755H18.1087V5.42204H18.3725C18.9003 5.42204 19.2594 5.68653 19.2594 6.06857C19.2594 6.43592 18.9076 6.68571 18.4092 6.68571C18.0427 6.68571 17.6762 6.56816 17.2951 6.34041V7.0751C17.7056 7.25143 18.116 7.34694 18.5191 7.34694C19.4793 7.34694 20.139 6.85469 20.139 6.14204C20.139 5.64245 19.8311 5.23837 19.318 5.07673C19.7578 4.9298 20.0437 4.54041 20.0437 4.09959C20.0437 3.40898 19.4353 2.93878 18.5558 2.93878C18.1593 2.94318 17.7678 3.02816 17.405 3.18857V3.90857C17.7569 3.7102 18.116 3.6 18.4605 3.6ZM21.6269 5.20163C22.1619 5.20163 22.5357 5.51755 22.5357 5.92898C22.5357 6.36245 22.1619 6.66367 21.6269 6.66367C21.3044 6.66367 20.9672 6.56082 20.6227 6.34776V7.10449C20.9819 7.26612 21.3483 7.34694 21.7075 7.34694C21.898 7.34694 22.074 7.31755 22.2425 7.27347C22.6237 6.64898 22.8436 5.92898 22.8436 5.15755L22.8289 4.84898C22.5564 4.68729 22.2439 4.60581 21.9274 4.61388C21.7954 4.61388 21.6562 4.62122 21.5096 4.64327V3.68816H22.565C22.4735 3.453 22.3606 3.22675 22.2279 3.01224H20.7473V5.32653C21.0405 5.25306 21.3337 5.20163 21.6269 5.20163Z" fill="#697386"/>
<defs>
<clipPath id="clip0_251_1485">
<rect width="23.5102" height="15.4286" fill="white" transform="translate(0 1.56641)"/>
</clipPath>
</defs>
</svg>
