<svg width="25" height="16" viewBox="0 0 25 16" fill="none" xmlns="http://www.w3.org/2000/svg">
<g id="Group">
<path id="Vector" d="M22.8635 0H2.92279C1.82149 0 0.928711 0.89543 0.928711 2V14C0.928711 15.1046 1.82149 16 2.92279 16H22.8635C23.9648 16 24.8576 15.1046 24.8576 14V2C24.8576 0.89543 23.9648 0 22.8635 0Z" fill="#252525"/>
<path id="Vector_2" d="M9.90218 13C12.6554 13 14.8874 10.7614 14.8874 8C14.8874 5.23858 12.6554 3 9.90218 3C7.14894 3 4.91699 5.23858 4.91699 8C4.91699 10.7614 7.14894 13 9.90218 13Z" fill="#EB001B"/>
<path id="Vector_3" d="M15.8846 13C18.6378 13 20.8698 10.7614 20.8698 8C20.8698 5.23858 18.6378 3 15.8846 3C13.1314 3 10.8994 5.23858 10.8994 8C10.8994 10.7614 13.1314 13 15.8846 13Z" fill="#F79E1B"/>
<path id="Vector_4" fill-rule="evenodd" clip-rule="evenodd" d="M12.8935 4C14.1043 4.91221 14.8876 6.36455 14.8876 8.00037C14.8876 9.63618 14.1043 11.0885 12.8935 12.0007C11.6826 11.0885 10.8994 9.63618 10.8994 8.00037C10.8994 6.36455 11.6826 4.91221 12.8935 4Z" fill="#FF5F00"/>
</g>
</svg>
