<svg width="20" height="16" viewBox="0 0 20 16" fill="none" xmlns="http://www.w3.org/2000/svg">
<g id="logos:paypal" clip-path="url(#clip0_251_1468)">
<path id="Vector" d="M16.9054 1.24514C15.8712 0.40371 14.0018 0.0429688 11.6102 0.0429688H4.66931C4.43269 0.042975 4.20383 0.103236 4.02388 0.212917C3.84394 0.322598 3.7247 0.474505 3.68762 0.641326L0.797539 13.7257C0.740094 13.9837 1.01997 14.2173 1.38632 14.2173H5.67141L6.74758 9.34469L6.71418 9.49727C6.79085 9.15285 7.20351 8.89881 7.69216 8.89881H9.72843C13.7287 8.89881 16.8609 7.73897 17.7759 4.38379C17.8031 4.28456 17.8266 4.18798 17.8469 4.09362C17.7314 4.04996 17.7314 4.04996 17.8469 4.09362C18.1194 2.85351 17.8451 2.00938 16.9054 1.24514Z" fill="#27346A"/>
<path id="Vector_2" d="M8.38722 3.64689C8.50437 3.60707 8.6325 3.58644 8.76225 3.58649H14.2038C14.8482 3.58649 15.4492 3.61643 15.9984 3.67953C16.1521 3.69702 16.305 3.7179 16.4569 3.74215C16.6721 3.77606 16.8849 3.81755 17.0944 3.86649C17.3644 3.93086 17.6159 4.00583 17.847 4.09362C18.1194 2.85304 17.8451 2.00938 16.9054 1.24514C15.8706 0.40371 14.0018 0.0429688 11.6102 0.0429688H4.66872C4.17998 0.0429688 3.76421 0.296955 3.68762 0.641326L0.797539 13.7252C0.740094 13.9836 1.01997 14.217 1.38572 14.217H5.67141L7.90413 4.10994C7.92609 4.01059 7.98153 3.91654 8.06568 3.83588C8.14983 3.75522 8.26018 3.69036 8.38722 3.64689Z" fill="#27346A"/>
<path id="Vector_3" d="M17.7751 4.38392C16.8602 7.73862 13.728 8.89894 9.72768 8.89894H7.69082C7.20216 8.89894 6.78943 9.15298 6.71351 9.49741L5.37467 15.5559C5.32465 15.7817 5.56928 15.9864 5.88931 15.9864H9.50153C9.70845 15.9863 9.90856 15.9336 10.0659 15.8376C10.2232 15.7417 10.3274 15.6088 10.3597 15.4629L10.3949 15.3315L11.0757 12.2515L11.1196 12.0812C11.1519 11.9354 11.2561 11.8025 11.4134 11.7065C11.5707 11.6106 11.7708 11.5579 11.9777 11.5578H12.5183C16.0175 11.5578 18.7574 10.543 19.5581 7.60813C19.8923 6.38164 19.7194 5.35764 18.8353 4.63839C18.5671 4.42053 18.2341 4.24061 17.8462 4.09375C17.8252 4.18858 17.8024 4.28469 17.7751 4.38392Z" fill="#2790C3"/>
<path id="Vector_4" d="M16.8894 3.82059C16.7468 3.79085 16.6027 3.76452 16.4576 3.74165C16.3057 3.7178 16.1528 3.69706 15.9992 3.67945C15.4494 3.61593 14.8488 3.58594 14.2038 3.58594H8.76291C8.63306 3.58573 8.50484 3.60654 8.38788 3.64681C8.26069 3.69015 8.15022 3.75497 8.06603 3.83566C7.98184 3.91634 7.92647 4.01046 7.90472 4.10986L6.74824 9.34419L6.71484 9.49677C6.79092 9.15235 7.20357 8.89831 7.6923 8.89831H9.72916C13.7294 8.89831 16.8616 7.73847 17.7766 4.38329C17.8038 4.28406 17.8267 4.1879 17.8477 4.09312C17.6159 4.00581 17.3652 3.93036 17.0951 3.86642C17.0269 3.85029 16.9583 3.83501 16.8894 3.82059Z" fill="#1F264F"/>
</g>
<defs>
<clipPath id="clip0_251_1468">
<rect width="19" height="16" fill="white" transform="translate(0.787109)"/>
</clipPath>
</defs>
</svg>
