<svg width="25" height="16" viewBox="0 0 25 16" fill="none" xmlns="http://www.w3.org/2000/svg">
<g id="319">
<g id="New Icons">
<g id="Card Brands">
<g id="Color">
<g id="Discover">
<path id="shape" d="M22.7893 15.7499L22.7914 15.7499C23.7437 15.7581 24.5249 14.9773 24.5368 14.0042L24.5369 2.0063C24.533 1.53569 24.3463 1.08617 24.0181 0.756802C23.6908 0.428269 23.2496 0.246149 22.7893 0.250071L2.8519 0.250062C2.39371 0.246149 1.95251 0.428269 1.62518 0.756802C1.29702 1.08617 1.11027 1.53569 1.10645 2.00426L1.10645 13.9937C1.11027 14.4643 1.29702 14.9138 1.62518 15.2432C1.95251 15.5717 2.39371 15.7538 2.85402 15.7499H22.7893ZM22.7882 16.2499C22.7879 16.2499 22.7875 16.2499 22.7871 16.2499L22.7893 16.2499H22.7882Z" fill="white" stroke="#0D4949" stroke-opacity="0.2" stroke-width="0.5"/>
<path id="shape_2" d="M13.4326 16.0002H22.7896C23.3149 16.0046 23.8203 15.7995 24.1948 15.4301C24.5693 15.0607 24.7821 14.5573 24.7865 14.0305V11.6719C21.2531 13.7062 17.4211 15.167 13.4326 16.0002Z" fill="#F27712"/>
<path id="shape_3" d="M23.9613 9.29595H23.1114L22.1542 8.02974H22.0634V9.29595H21.3703V6.15112H22.3935C23.1939 6.15112 23.656 6.48215 23.656 7.07801C23.656 7.56629 23.3672 7.88077 22.8473 7.98008L23.9613 9.29595ZM22.9381 7.10284C22.9381 6.79663 22.7071 6.63939 22.278 6.63939H22.0634V7.59112H22.2615C22.7071 7.59112 22.9381 7.4256 22.9381 7.10284ZM18.9444 6.15112H20.9083V6.68077H19.6376V7.38422H20.8588V7.92215H19.6376V8.77457H20.9083V9.30422H18.9444V6.15112ZM16.7166 9.3787L15.2148 6.14284H15.974L16.9229 8.26146L17.88 6.14284H18.6226L17.1044 9.3787H16.7331H16.7166ZM10.4373 9.37043C9.38112 9.37043 8.55599 8.65043 8.55599 7.71526C8.55599 6.80491 9.39763 6.06836 10.4538 6.06836C10.7508 6.06836 10.9984 6.12629 11.3037 6.2587V6.98698C11.0725 6.75916 10.7614 6.63139 10.4373 6.63112C9.77719 6.63112 9.27386 7.11112 9.27386 7.71526C9.27386 8.3525 9.76894 8.80767 10.4703 8.80767C10.7839 8.80767 11.0231 8.70836 11.3037 8.46008V9.18836C10.9901 9.32077 10.7261 9.37043 10.4373 9.37043ZM8.34146 8.33595C8.34146 8.94836 7.83812 9.37043 7.112 9.37043C6.58392 9.37043 6.20436 9.18836 5.88255 8.77457L6.33638 8.3856C6.49315 8.66698 6.7572 8.80767 7.08725 8.80767C7.4008 8.80767 7.62359 8.61732 7.62359 8.36905C7.62359 8.22836 7.55758 8.12077 7.4173 8.03801C7.2635 7.96316 7.10334 7.90223 6.93873 7.85595C6.28687 7.64905 6.06408 7.4256 6.06408 6.98698C6.06408 6.47388 6.54266 6.08491 7.16976 6.08491C7.56583 6.08491 7.92064 6.20905 8.21769 6.44077L7.85463 6.85457C7.71073 6.69635 7.50705 6.60622 7.29353 6.60629C6.99649 6.60629 6.78195 6.75526 6.78195 6.95388C6.78195 7.11939 6.90572 7.21043 7.31829 7.35112C8.11042 7.59939 8.34146 7.83112 8.34146 8.34422V8.33595ZM4.93365 6.15112H5.62676V9.30422H4.93365V6.15112ZM2.70578 9.30422H1.68262V6.15112H2.70578C3.82797 6.15112 4.60359 6.79664 4.60359 7.72353C4.60359 8.19526 4.37256 8.64215 3.96824 8.94008C3.62168 9.18836 3.23387 9.30422 2.69753 9.30422H2.70578ZM3.51442 6.93733C3.28338 6.75526 3.01934 6.68905 2.56551 6.68905H2.37573V8.77457H2.56551C3.01108 8.77457 3.29163 8.69181 3.51442 8.52629C3.75371 8.32767 3.89398 8.02974 3.89398 7.72353C3.89398 7.41732 3.75371 7.12767 3.51442 6.93733Z" fill="#0D4949"/>
<path id="shape_4" d="M13.2343 6.06836C12.3266 6.06836 11.584 6.79664 11.584 7.6987C11.584 8.6587 12.2936 9.3787 13.2343 9.3787C14.1584 9.3787 14.8845 8.65043 14.8845 7.72353C14.8845 6.79664 14.1667 6.06836 13.2343 6.06836Z" fill="#F27712"/>
</g>
</g>
</g>
</g>
</g>
</svg>
