<svg width="48" height="68" viewBox="0 0 48 68" fill="none" xmlns="http://www.w3.org/2000/svg">
<path d="M44.6683 22.7751L23.9979 37.8662L3.32747 22.7751C2.95816 22.5049 2.46239 22.3537 1.94614 22.3537C1.42989 22.3537 0.934115 22.5049 0.564803 22.7751C0.385982 22.9063 0.24392 23.063 0.146937 23.2358C0.0499542 23.4087 0 23.5943 0 23.7818C0 23.9693 0.0499542 24.1549 0.146937 24.3278C0.24392 24.5006 0.385982 24.6573 0.564803 24.7885L22.5545 40.846C22.9407 41.128 23.4586 41.2857 23.9979 41.2857C24.5372 41.2857 25.0551 41.128 25.4413 40.846L36.4361 32.8188L47.431 24.7916C47.611 24.6603 47.7542 24.5033 47.8519 24.3298C47.9496 24.1564 48 23.9701 48 23.7818C48 23.5936 47.9496 23.4072 47.8519 23.2338C47.7542 23.0603 47.611 22.9033 47.431 22.772C47.0617 22.5018 46.5659 22.3506 46.0496 22.3506C45.5334 22.3506 45.0376 22.5018 44.6683 22.772V22.7751Z" fill="#17E093"/>
<path d="M38.64 43.2095L23.9985 53.0515L9.35696 43.2095C9.09536 43.0333 8.74419 42.9346 8.37851 42.9346C8.01284 42.9346 7.66166 43.0333 7.40007 43.2095C7.2734 43.2951 7.17278 43.3972 7.10408 43.5099C7.03538 43.6227 7 43.7437 7 43.866C7 43.9883 7.03538 44.1094 7.10408 44.2221C7.17278 44.3348 7.2734 44.437 7.40007 44.5226L22.9761 54.9949C23.2496 55.1787 23.6165 55.2816 23.9985 55.2816C24.3805 55.2816 24.7474 55.1787 25.0209 54.9949L32.8089 49.7597L40.5969 44.5246C40.7245 44.4389 40.8259 44.3365 40.8951 44.2234C40.9643 44.1103 41 43.9888 41 43.866C41 43.7432 40.9643 43.6217 40.8951 43.5086C40.8259 43.3955 40.7245 43.2931 40.5969 43.2075C40.3353 43.0313 39.9842 42.9326 39.6185 42.9326C39.2528 42.9326 38.9016 43.0313 38.64 43.2075V43.2095Z" fill="#17E093" fill-opacity="0.4"/>
<path d="M36.1259 57.9725L24.4988 65.8461L12.8717 57.9725C12.664 57.8315 12.3851 57.7526 12.0947 57.7526C11.8043 57.7526 11.5254 57.8315 11.3177 57.9725C11.2171 58.0409 11.1372 58.1227 11.0827 58.2128C11.0281 58.303 11 58.3999 11 58.4977C11 58.5955 11.0281 58.6924 11.0827 58.7826C11.1372 58.8727 11.2171 58.9545 11.3177 59.0229L23.6869 67.4008C23.9041 67.5479 24.1955 67.6302 24.4988 67.6302C24.8021 67.6302 25.0935 67.5479 25.3107 67.4008L31.4953 63.2127L37.6799 59.0245C37.7812 58.956 37.8617 58.8741 37.9167 58.7836C37.9717 58.6931 38 58.5959 38 58.4977C38 58.3995 37.9717 58.3023 37.9167 58.2118C37.8617 58.1213 37.7812 58.0394 37.6799 57.9709C37.4722 57.8299 37.1933 57.751 36.9029 57.751C36.6125 57.751 36.3337 57.8299 36.1259 57.9709V57.9725Z" fill="#0D4949" fill-opacity="0.1"/>
<path d="M36.1259 1.1668L24.4988 9.04043L12.8717 1.1668C12.664 1.02584 12.3851 0.946928 12.0947 0.946928C11.8043 0.946928 11.5254 1.02584 11.3177 1.1668C11.2171 1.23527 11.1372 1.31699 11.0827 1.40718C11.0281 1.49736 11 1.59421 11 1.69204C11 1.78986 11.0281 1.88671 11.0827 1.97689C11.1372 2.06708 11.2171 2.1488 11.3177 2.21727L23.6869 10.5951C23.9041 10.7422 24.1955 10.8245 24.4988 10.8245C24.8021 10.8245 25.0935 10.7422 25.3107 10.5951L31.4953 6.407L37.6799 2.21888C37.7812 2.15037 37.8617 2.06845 37.9167 1.97796C37.9717 1.88747 38 1.79025 38 1.69204C38 1.59382 37.9717 1.4966 37.9167 1.40611C37.8617 1.31562 37.7812 1.2337 37.6799 1.16519C37.4722 1.02423 37.1933 0.945312 36.9029 0.945312C36.6125 0.945312 36.3337 1.02423 36.1259 1.16519V1.1668Z" fill="#0D4949" fill-opacity="0.1"/>
<path d="M38.64 12.7485L23.9985 22.5906L9.35696 12.7485C9.09536 12.5723 8.74419 12.4737 8.37851 12.4737C8.01284 12.4737 7.66166 12.5723 7.40007 12.7485C7.2734 12.8341 7.17278 12.9363 7.10408 13.049C7.03538 13.1617 7 13.2828 7 13.4051C7 13.5274 7.03538 13.6484 7.10408 13.7612C7.17278 13.8739 7.2734 13.976 7.40007 14.0616L22.9761 24.5339C23.2496 24.7178 23.6165 24.8207 23.9985 24.8207C24.3805 24.8207 24.7474 24.7178 25.0209 24.5339L32.8089 19.2988L40.5969 14.0636C40.7245 13.978 40.8259 13.8756 40.8951 13.7625C40.9643 13.6494 41 13.5279 41 13.4051C41 13.2823 40.9643 13.1608 40.8951 13.0477C40.8259 12.9346 40.7245 12.8322 40.5969 12.7465C40.3353 12.5703 39.9842 12.4717 39.6185 12.4717C39.2528 12.4717 38.9016 12.5703 38.64 12.7465V12.7485Z" fill="#17E093" fill-opacity="0.4"/>
</svg>
