<svg width="152" height="55" viewBox="0 0 152 55" fill="none" xmlns="http://www.w3.org/2000/svg">
<g id="Group">
<path id="Vector" d="M26.9678 27.4084L8.31737 17.0247L21.358 9.76171V16.9168L26.9678 13.7908V0L3.16886 13.2515V20.7953L21.7905 31.1641L8.77865 38.4095V23.9213L3.16886 27.0447V41.5329L0 43.2991V49.9374L3.16886 48.1712V55L8.77865 51.8766V45.0477L26.9678 34.9197V27.4084Z" fill="#17E093"/>
<g id="Group_2">
<path id="Vector_2" d="M43.5564 17.7627H35.4985V21.7215H39.7172H43.5564C44.3732 21.7215 45.0099 21.9749 45.5024 22.4892C45.9949 23.0035 46.2327 23.6408 46.2327 24.4361C46.2327 25.2314 45.9925 25.861 45.5024 26.3653C45.0147 26.8646 44.366 27.1204 43.5564 27.1204H39.7172V21.7241L35.4985 23.9243V37.5845H39.7172V31.0793H43.5564C45.6513 31.0793 47.3643 30.4596 48.6424 29.2353C49.9301 28.0086 50.5836 26.4004 50.5836 24.4636C50.5836 22.5269 49.9253 20.9061 48.6352 19.6518C47.3451 18.3974 45.6345 17.7627 43.5564 17.7627Z" fill="#0D4949"/>
<path id="Vector_3" d="M57.7992 22.8821C57.0328 23.1832 56.3649 23.6574 55.8076 24.2997V22.8521H51.8026V37.5811H55.8076V29.3598C55.8076 25.5942 60.9224 26.8786 60.9224 26.8786V22.8571L60.7711 22.8093C59.7596 22.4807 58.7602 22.5058 57.7992 22.8821Z" fill="#0D4949"/>
<path id="Vector_4" d="M69.0424 22.5791C66.909 22.5791 65.1023 23.3167 63.6729 24.7743C62.241 26.2319 61.513 28.0658 61.513 30.2208C61.513 32.3759 62.2386 34.2098 63.6729 35.6674C65.1023 37.1225 66.909 37.8626 69.0424 37.8626C71.1758 37.8626 72.9825 37.125 74.4119 35.6674C75.8438 34.2098 76.5717 32.3759 76.5717 30.2208C76.5717 28.0658 75.8462 26.2319 74.4119 24.7743C72.9825 23.3167 71.1734 22.5791 69.0424 22.5791ZM71.4569 32.9304C70.8034 33.6554 70.013 34.0091 69.0424 34.0091C68.0694 34.0091 67.279 33.6554 66.6279 32.9304C65.9792 32.2104 65.6525 31.2997 65.6525 30.2184C65.6525 29.1572 65.9816 28.254 66.6279 27.5339C67.2814 26.8089 68.0718 26.4552 69.0424 26.4552C70.0154 26.4552 70.8058 26.8039 71.4593 27.5214C72.1055 28.2314 72.4347 29.1396 72.4347 30.2184C72.4323 31.2997 72.1031 32.2129 71.4569 32.9304Z" fill="#0D4949"/>
<path id="Vector_5" d="M85.6479 22.5791C84.0262 22.5791 82.64 23.1336 81.5156 24.2249V22.8551H77.5107V43.1185H81.5156V36.2144C82.64 37.3082 84.0286 37.8601 85.6479 37.8601C87.5747 37.8601 89.206 37.1201 90.4961 35.6575C91.7838 34.1999 92.4349 32.3709 92.4349 30.2208C92.4349 28.0708 91.7838 26.2394 90.4961 24.7843C89.2036 23.3192 87.5723 22.5791 85.6479 22.5791ZM87.32 32.9304C86.6665 33.6554 85.8785 34.0091 84.9055 34.0091C83.9325 34.0091 83.1421 33.6554 82.491 32.9304C81.8424 32.2104 81.5156 31.2997 81.5156 30.2184C81.5156 29.1572 81.8448 28.254 82.491 27.5339C83.1445 26.8089 83.9349 26.4552 84.9055 26.4552C85.8785 26.4552 86.6689 26.8039 87.3224 27.5214C87.9687 28.2314 88.2978 29.1396 88.2978 30.2184C88.2954 31.2997 87.9663 32.2129 87.32 32.9304Z" fill="#0D4949"/>
<path id="Vector_6" d="M106.237 27.3204C105.634 26.9065 104.963 26.5476 104.235 26.2591C103.517 25.9731 102.791 25.7324 102.076 25.5442C101.379 25.3661 100.73 25.1728 100.139 24.9822C99.5794 24.799 99.1181 24.5482 98.7673 24.2496C98.4478 23.9687 98.2892 23.63 98.2892 23.2135C98.2892 22.6767 98.5127 22.2401 98.9739 21.8864C99.4448 21.5201 100.072 21.332 100.833 21.332C101.679 21.332 102.376 21.5728 102.907 22.042C103.44 22.5111 103.779 23.1532 103.911 23.9435L103.945 24.1668L108.139 22.8723C107.875 21.3043 107.109 20.0098 105.864 19.0238C104.577 18.0002 102.931 17.4834 100.966 17.4834C99.0172 17.4834 97.3451 18.0504 95.9949 19.1744C94.6303 20.3134 93.9432 21.7459 93.9432 23.4343C93.9432 24.4478 94.1402 25.3359 94.5246 26.0735C94.9138 26.8136 95.4231 27.3981 96.0429 27.8046C96.6459 28.1984 97.3162 28.5371 98.0442 28.8181C98.7673 29.0991 99.4929 29.3324 100.204 29.5181C100.901 29.7012 101.549 29.8943 102.136 30.095C102.695 30.2882 103.157 30.5466 103.503 30.8678C103.827 31.1663 103.985 31.5252 103.985 31.9617C103.985 32.5337 103.733 33.0053 103.217 33.3992C102.683 33.8006 101.977 34.0063 101.127 34.0063C100.173 34.0063 99.3992 33.7729 98.8298 33.3189C98.27 32.8673 97.9193 32.22 97.7871 31.3997L97.7487 31.1713L93.554 32.4709C93.8398 34.079 94.6447 35.3811 95.9396 36.3495C97.2778 37.3505 98.9884 37.8573 101.018 37.8573C103.058 37.8573 104.798 37.2803 106.201 36.1488C107.62 35.0023 108.339 33.5547 108.339 31.8487C108.339 30.8001 108.142 29.8843 107.757 29.1166C107.371 28.349 106.856 27.7469 106.237 27.3204Z" fill="#0D4949"/>
<path id="Vector_7" d="M113.79 17.7627L109.786 19.8952V31.8244C109.786 33.7411 110.261 35.1987 111.203 36.1496C112.14 37.1004 113.591 37.5821 115.513 37.5821H117.344V33.8414H115.513C114.338 33.8414 113.793 33.2694 113.793 32.0451V26.5935H117.344V22.853H113.793V17.7627H113.79Z" fill="#0D4949"/>
<path id="Vector_8" d="M129.985 24.0422C128.873 23.0738 127.407 22.5771 125.634 22.5771C123.9 22.5771 122.449 23.0112 121.322 23.8667C120.207 24.7096 119.53 25.7959 119.313 27.0904L123.234 28.2997L123.278 28.0714C123.388 27.4467 123.655 26.955 124.061 26.6163C124.472 26.2726 125.01 26.0995 125.663 26.0995C126.271 26.0995 126.766 26.2425 127.143 26.5235C127.501 26.7969 127.676 27.1431 127.676 27.5897C127.676 27.951 127.566 28.4376 126.6 28.5003L124.368 28.7237C120.743 29.1251 118.905 30.7457 118.905 33.5404C118.905 34.84 119.354 35.8987 120.238 36.6865C121.115 37.4642 122.235 37.8606 123.568 37.8606C125.226 37.8606 126.607 37.2987 127.676 36.1873V37.5846H131.681V28.3347C131.677 26.4707 131.11 25.0232 129.985 24.0422ZM126.72 33.5155C126.074 34.1452 125.329 34.4512 124.44 34.4512C123.962 34.4512 123.58 34.3332 123.302 34.0999C123.035 33.8741 122.905 33.5931 122.905 33.2369C122.905 32.8957 123.028 32.6223 123.28 32.3966C123.549 32.1582 123.921 32.0027 124.385 31.9374L126.696 31.6589C127.117 31.5987 127.439 31.5259 127.672 31.4381C127.657 32.2234 127.345 32.9058 126.72 33.5155Z" fill="#0D4949"/>
<path id="Vector_9" d="M139.23 22.8814C138.464 23.1825 137.796 23.6568 137.239 24.299V22.8514H133.234V37.5805H137.239V29.3592C137.239 28.1826 137.688 27.3546 138.61 26.8278C139.54 26.2984 140.703 26.2809 142.07 26.7726L142.354 26.8755V22.8539L142.202 22.8062C141.191 22.4826 140.189 22.5051 139.23 22.8814Z" fill="#0D4949"/>
<path id="Vector_10" d="M151.247 26.5961V22.8555H147.696V17.7627L143.691 19.8952V31.8244C143.691 33.7411 144.167 35.1987 145.109 36.1496C146.046 37.1004 147.497 37.5821 149.419 37.5821H151.249V33.8414H149.419C148.244 33.8414 147.699 33.2694 147.699 32.0451V26.5935H151.247V26.5961Z" fill="#0D4949"/>
</g>
</g>
</svg>
