<svg width="24" height="24" viewBox="0 0 24 24" fill="none" xmlns="http://www.w3.org/2000/svg">
<g clip-path="url(#clip0_101_2)">
<path opacity="0.6" d="M12.4205 24.001C18.8162 24.001 24.001 18.8162 24.001 12.4205C24.001 6.02476 18.8162 0.84 12.4205 0.84C6.02475 0.84 0.839996 6.02476 0.839996 12.4205C0.839996 18.8162 6.02475 24.001 12.4205 24.001Z" fill="#17E093"/>
<path fill-rule="evenodd" clip-rule="evenodd" d="M16.6022 12.263L11.159 8.7312C11.078 8.68087 10.9862 8.6503 10.8912 8.64196C10.7961 8.63362 10.7004 8.64775 10.6118 8.6832C10.4333 8.7552 10.32 8.904 10.32 9.06816V16.1318C10.32 16.295 10.4333 16.4448 10.6118 16.5168C10.7005 16.5521 10.7961 16.5661 10.8911 16.5578C10.9862 16.5495 11.0779 16.519 11.159 16.4688L16.6022 12.936C16.6608 12.9011 16.7095 12.852 16.7441 12.7933C16.7786 12.7346 16.7979 12.6681 16.8 12.6C16.7979 12.5319 16.7786 12.4654 16.7441 12.4067C16.7095 12.348 16.6608 12.298 16.6022 12.263Z" fill="white"/>
</g>
<defs>
<clipPath id="clip0_101_2">
<rect width="24" height="24" fill="white"/>
</clipPath>
</defs>
</svg>
