<svg width="22" height="22" viewBox="0 0 22 22" fill="none" xmlns="http://www.w3.org/2000/svg">
<g id="uil:calender">
<path id="Vector" d="M17.4163 3.66732H15.583V2.75065C15.583 2.50754 15.4864 2.27438 15.3145 2.10247C15.1426 1.93056 14.9095 1.83398 14.6663 1.83398C14.4232 1.83398 14.1901 1.93056 14.0182 2.10247C13.8463 2.27438 13.7497 2.50754 13.7497 2.75065V3.66732H8.24967V2.75065C8.24967 2.50754 8.1531 2.27438 7.98119 2.10247C7.80928 1.93056 7.57612 1.83398 7.33301 1.83398C7.08989 1.83398 6.85674 1.93056 6.68483 2.10247C6.51292 2.27438 6.41634 2.50754 6.41634 2.75065V3.66732H4.58301C3.85366 3.66732 3.15419 3.95705 2.63846 4.47277C2.12274 4.9885 1.83301 5.68797 1.83301 6.41732V17.4173C1.83301 18.1467 2.12274 18.8461 2.63846 19.3619C3.15419 19.8776 3.85366 20.1673 4.58301 20.1673H17.4163C18.1457 20.1673 18.8452 19.8776 19.3609 19.3619C19.8766 18.8461 20.1663 18.1467 20.1663 17.4173V6.41732C20.1663 5.68797 19.8766 4.9885 19.3609 4.47277C18.8452 3.95705 18.1457 3.66732 17.4163 3.66732ZM18.333 17.4173C18.333 17.6604 18.2364 17.8936 18.0645 18.0655C17.8926 18.2374 17.6595 18.334 17.4163 18.334H4.58301C4.33989 18.334 4.10674 18.2374 3.93483 18.0655C3.76292 17.8936 3.66634 17.6604 3.66634 17.4173V11.0007H18.333V17.4173ZM18.333 9.16732H3.66634V6.41732C3.66634 6.1742 3.76292 5.94105 3.93483 5.76914C4.10674 5.59723 4.33989 5.50065 4.58301 5.50065H6.41634V6.41732C6.41634 6.66043 6.51292 6.89359 6.68483 7.0655C6.85674 7.23741 7.08989 7.33398 7.33301 7.33398C7.57612 7.33398 7.80928 7.23741 7.98119 7.0655C8.1531 6.89359 8.24967 6.66043 8.24967 6.41732V5.50065H13.7497V6.41732C13.7497 6.66043 13.8463 6.89359 14.0182 7.0655C14.1901 7.23741 14.4232 7.33398 14.6663 7.33398C14.9095 7.33398 15.1426 7.23741 15.3145 7.0655C15.4864 6.89359 15.583 6.66043 15.583 6.41732V5.50065H17.4163C17.6595 5.50065 17.8926 5.59723 18.0645 5.76914C18.2364 5.94105 18.333 6.1742 18.333 6.41732V9.16732Z" fill="#8692A6"/>
</g>
</svg>
