<svg width="15" height="9" viewBox="0 0 15 9" fill="none" xmlns="http://www.w3.org/2000/svg">
<path d="M13.6441 0.188141L7.33026 6.87622L1.01639 0.188141C0.903584 0.0684054 0.752148 0.00137266 0.594457 0.00137266C0.436765 0.00137266 0.28533 0.0684054 0.172522 0.188141C0.1179 0.246296 0.0745065 0.315711 0.0448826 0.392319C0.0152587 0.468928 0 0.55119 0 0.634287C0 0.717384 0.0152587 0.799645 0.0448826 0.876254C0.0745065 0.952862 0.1179 1.02228 0.172522 1.08043L6.88938 8.19681C7.00734 8.32175 7.16554 8.39168 7.33026 8.39168C7.49499 8.39168 7.65319 8.32175 7.77115 8.19681L14.488 1.08181C14.543 1.02361 14.5867 0.954021 14.6166 0.877159C14.6464 0.800297 14.6618 0.717715 14.6618 0.634287C14.6618 0.550859 14.6464 0.468276 14.6166 0.391414C14.5867 0.314552 14.543 0.244967 14.488 0.186767C14.3752 0.0670321 14.2238 0 14.0661 0C13.9084 0 13.7569 0.0670321 13.6441 0.186767V0.188141Z" fill="#0D4949" fill-opacity="0.6"/>
</svg>
