<svg width="12" height="17" viewBox="0 0 12 17" fill="none" xmlns="http://www.w3.org/2000/svg">
<path id="Vector" d="M0.266235 16.0352C0.266235 14.9885 0.530311 14.0186 1.05846 13.1255C1.56741 12.2613 2.254 11.5747 3.11825 11.0657C4.0113 10.5376 4.98118 10.2735 6.02788 10.2735C7.07458 10.2735 8.04446 10.5376 8.93751 11.0657C9.80176 11.5747 10.4884 12.2613 10.9973 13.1255C11.5254 14.0186 11.7895 14.9885 11.7895 16.0352H10.3491C10.3491 15.2573 10.1523 14.5323 9.75855 13.8601C9.37444 13.2071 8.85589 12.6886 8.2029 12.3045C7.53071 11.9108 6.8057 11.7139 6.02788 11.7139C5.25006 11.7139 4.52505 11.9108 3.85286 12.3045C3.19987 12.6886 2.68132 13.2071 2.29722 13.8601C1.9035 14.5323 1.70665 15.2573 1.70665 16.0352H0.266235ZM6.02788 9.55331C5.24046 9.55331 4.51545 9.35645 3.85286 8.96274C3.19987 8.57863 2.68132 8.06008 2.29722 7.40709C1.9035 6.7445 1.70665 6.0195 1.70665 5.23207C1.70665 4.44465 1.9035 3.71964 2.29722 3.05705C2.68132 2.40407 3.19987 1.88552 3.85286 1.50141C4.51545 1.1077 5.24046 0.910839 6.02788 0.910839C6.81531 0.910839 7.54031 1.1077 8.2029 1.50141C8.85589 1.88552 9.37444 2.40407 9.75855 3.05705C10.1523 3.71964 10.3491 4.44465 10.3491 5.23207C10.3491 6.0195 10.1523 6.7445 9.75855 7.40709C9.37444 8.06008 8.85589 8.57863 8.2029 8.96274C7.54031 9.35645 6.81531 9.55331 6.02788 9.55331ZM6.02788 8.1129C6.54643 8.1129 7.02657 7.98326 7.46829 7.72398C7.91002 7.46471 8.26052 7.11421 8.51979 6.67248C8.77907 6.23076 8.9087 5.75062 8.9087 5.23207C8.9087 4.71352 8.77907 4.23339 8.51979 3.79166C8.26052 3.34994 7.91002 2.99944 7.46829 2.74016C7.02657 2.48089 6.54643 2.35125 6.02788 2.35125C5.50933 2.35125 5.0292 2.48089 4.58747 2.74016C4.14574 2.99944 3.79524 3.34994 3.53597 3.79166C3.27669 4.23339 3.14706 4.71352 3.14706 5.23207C3.14706 5.75062 3.27669 6.23076 3.53597 6.67248C3.79524 7.11421 4.14574 7.46471 4.58747 7.72398C5.0292 7.98326 5.50933 8.1129 6.02788 8.1129Z" fill="#17E093"/>
</svg>
